<?xml version="1.0" encoding="iso-8859-1"?>
<!-- Generator: Adobe Illustrator 26.0.2, SVG Export Plug-In . SVG Version: 6.00 Build 0)  -->
<svg version="1.1" xmlns="http://www.w3.org/2000/svg" xmlns:xlink="http://www.w3.org/1999/xlink" x="0px" y="0px"
	 viewBox="0 0 1000 550" style="enable-background:new 0 0 1000 550;" xml:space="preserve">
<g id="Layer_1" style="display:none;">
	<path style="display:inline;" d="M34.101,39.92c0-3.271,1.736-4.912,5.219-4.912h132.323c2.864,0,4.298,1.434,4.298,4.298
		c0,2.663-1.434,3.991-4.298,3.991H42.39v90.569h76.753c2.864,0,4.298,1.434,4.298,4.298c0,2.663-1.435,3.991-4.298,3.991H42.39
		v87.192h126.797c2.657,0.413,3.991,1.842,3.991,4.298c0,2.663-1.435,3.991-4.298,3.991H39.627c-1.641,0-2.763-0.254-3.377-0.768
		c-0.614-0.508-1.127-1.175-1.535-1.996c-0.413-0.815-0.614-1.842-0.614-3.07V39.92z"/>
	<path style="display:inline;" d="M295.985,233.646v-20.263c-5.119,7.781-11.873,13.969-20.263,18.574
		c-8.395,4.605-17.298,6.908-26.71,6.908c-7.368,0-14.482-1.482-21.337-4.452c-6.86-2.965-12.847-6.956-17.96-11.974
		c-5.118-5.013-9.162-10.846-12.127-17.5c-2.969-6.649-4.351-13.763-4.145-21.337v-44.21c-0.207-7.57,1.17-14.737,4.13-21.491
		c2.959-6.754,6.989-12.636,12.093-17.653c5.104-5.013,11.072-8.951,17.912-11.82c6.836-2.864,13.931-4.298,21.28-4.298
		s14.338,1.381,20.973,4.145c6.629,2.763,12.549,6.601,17.754,11.513c5.205,4.912,9.287,10.746,12.247,17.5
		c2.96,6.754,4.442,14.123,4.442,22.105v46.359v47.894c0,2.663-1.482,3.991-4.442,3.991
		C297.265,237.637,295.985,236.309,295.985,233.646z M201.731,183.704c0,6.989,1.334,13.36,4.001,19.116
		c2.667,5.757,6.159,10.693,10.472,14.804c4.312,4.116,9.292,7.301,14.943,9.561c5.646,2.264,11.551,3.391,17.711,3.391
		c5.953,0,11.7-1.026,17.245-3.084c5.546-2.053,10.472-5.037,14.785-8.941c4.313-3.905,7.805-8.635,10.477-14.185
		c2.667-5.55,4.207-11.719,4.62-18.502v-46.57c0-7.195-1.338-13.72-4.006-19.582c-2.667-5.857-6.212-10.789-10.625-14.799
		c-4.413-4.01-9.445-7.095-15.091-9.253c-5.651-2.159-11.451-3.238-17.404-3.238c-6.366,0-12.372,1.132-18.018,3.391
		c-5.651,2.265-10.63,5.502-14.943,9.714c-4.312,4.217-7.752,9.201-10.318,14.958c-2.567,5.756-3.848,12.026-3.848,18.809V183.704z"
		/>
	<path style="display:inline;" d="M325.762,206.015c-0.82-1.636-0.667-2.964,0.46-3.991c1.123-1.021,2.197-1.535,3.224-1.535
		c1.022,0,1.737,0.153,2.149,0.46c0.408,0.307,1.022,1.18,1.842,2.609c4.298,7.781,10.285,14.276,17.96,19.496
		s17.039,7.728,28.092,7.521c5.113,0,10.386-0.614,15.811-1.842c5.421-1.228,10.386-3.118,14.89-5.68
		c4.5-2.557,8.136-5.987,10.899-10.285s4.145-9.719,4.145-16.271c0-11.667-4.25-20.618-12.741-26.864
		c-8.496-6.241-19.188-9.364-32.083-9.364c-7.575,0-14.43-0.508-20.57-1.535c-6.141-1.022-11.413-2.917-15.812-5.68
		c-4.403-2.763-7.781-6.548-10.131-11.36c-2.355-4.807-3.531-10.899-3.531-18.267c0-11.667,4.5-21.131,13.509-28.399
		c9.004-7.263,21.079-11,36.228-11.206c3.271,0.207,6.447,0.413,9.518,0.614c3.07,0.206,6.035,0.82,8.903,1.842
		c4.706,1.641,9.518,4.044,14.43,7.215c4.912,3.176,9.004,7.114,12.28,11.82c1.022,1.434,1.535,2.763,1.535,3.991
		c0,0.82-0.413,1.588-1.228,2.302c-0.82,0.72-1.741,1.075-2.763,1.075c-0.82,0-1.487-0.254-1.996-0.768
		c-0.513-0.508-0.974-0.969-1.381-1.381c-5.119-6.342-10.645-11-16.579-13.969c-5.939-2.965-13.509-4.452-22.719-4.452
		c-12.895,0-23.026,3.07-30.394,9.21c-7.369,6.14-11.053,13.508-11.053,22.105c0,10.438,3.579,17.807,10.746,22.105
		c7.162,4.298,17.5,6.447,31.008,6.447c7.57,0,14.631,0.974,21.184,2.917c6.548,1.948,12.175,4.812,16.886,8.596
		c4.706,3.79,8.39,8.443,11.052,13.969c2.658,5.526,3.991,11.873,3.991,19.035c0,7.167-1.381,13.355-4.145,18.574
		s-6.553,9.623-11.359,13.202c-4.812,3.583-10.544,6.246-17.193,7.982c-6.654,1.736-13.768,2.609-21.337,2.609
		c-1.641,0-4.711-0.259-9.21-0.768c-4.504-0.508-9.47-1.842-14.89-3.991c-5.426-2.149-10.851-5.42-16.272-9.824
		C333.692,219.883,329.24,213.796,325.762,206.015z"/>
	<path style="display:inline;fill:#6495FF;" d="M506.591,238.558c-7.167-0.413-13.869-2.096-20.11-5.065
		c-6.246-2.965-11.667-6.855-16.272-11.667c-4.605-4.807-8.289-10.487-11.052-17.04c-2.763-6.548-4.145-13.609-4.145-21.184V89.042
		c0-2.658,1.329-3.991,3.991-3.991c2.456,0,3.886,1.228,4.298,3.675v94.67c0,6.74,1.276,12.971,3.838,18.689
		c2.557,5.718,5.987,10.673,10.285,14.856c4.298,4.188,9.311,7.455,15.044,9.806c5.728,2.35,11.768,3.521,18.114,3.521
		c5.934,0,11.714-1.171,17.346-3.521c5.628-2.351,10.692-5.565,15.198-9.652c4.5-4.083,8.082-9.033,10.744-14.857
		c2.658-5.823,3.992-12.103,3.992-18.843V89.033c0-2.653,1.328-3.982,3.99-3.982c2.865,0,4.299,1.333,4.299,3.991v94.561
		c0,7.574-1.381,14.583-4.145,21.03s-6.5,12.127-11.207,17.039c-4.709,4.912-10.184,8.855-16.424,11.82
		c-6.246,2.969-12.742,4.653-19.496,5.065v49.123c0,2.657-1.435,3.991-4.298,3.991c-2.663,0-3.991-1.333-3.991-3.991V238.558z"/>
	<path style="display:inline;fill:#6495FF;" d="M506.608,319.423h-62.631c-2.869,0-4.298-1.329-4.298-3.991
		c0-2.864,1.429-4.298,4.298-4.298h66.622h66.93c2.657,0,3.991,1.434,3.991,4.298c0,2.662-1.334,3.991-3.991,3.991h-62.631v190.349
		c0,2.662-1.435,3.991-4.299,3.991c-2.662,0-3.991-1.329-3.991-3.991V319.423z"/>
	<path style="display:inline;" d="M700.95,483.369c-2.255,4.505-5.118,8.649-8.597,12.435c-3.482,3.789-7.368,7.113-11.666,9.978
		c-4.298,2.869-8.855,5.118-13.662,6.754c-4.812,1.637-9.671,2.457-14.583,2.457c-8.597,0-16.479-1.382-23.641-4.146
		c-7.167-2.763-13.307-6.495-18.421-11.206c-5.118-4.705-9.109-10.284-11.974-16.731c-2.868-6.447-4.298-13.355-4.298-20.724
		v-49.122c0-7.369,1.636-14.276,4.912-20.724c3.271-6.447,7.623-12.021,13.048-16.732c5.421-4.706,11.667-8.443,18.729-11.206
		s14.276-4.145,21.645-4.145s14.223,1.382,20.569,4.145c6.342,2.763,11.921,6.5,16.732,11.206
		c4.807,4.711,8.597,10.285,11.359,16.732c2.764,6.447,4.145,13.354,4.145,20.724v24.561c0,2.869-1.333,4.299-3.99,4.299h-98.859
		v20.263c0,5.938,1.229,11.618,3.685,17.039c2.456,5.426,5.934,10.185,10.438,14.276c4.5,4.097,9.824,7.32,15.965,9.671
		c6.141,2.355,12.789,3.53,19.956,3.53c8.596,0,16.578-2.71,23.947-8.136c7.368-5.421,13.402-12.636,18.113-21.645
		c0.614-1.021,1.688-1.482,3.224-1.382c1.535,0.105,2.711,0.566,3.531,1.382c0.815,1.026,1.122,2.102,0.921,3.224
		C701.972,481.273,701.565,482.347,700.95,483.369z M602.399,433.632h94.561v-20.569c0-5.935-1.228-11.614-3.684-17.04
		c-2.456-5.42-5.733-10.179-9.825-14.275c-4.097-4.093-8.803-7.316-14.122-9.671c-5.325-2.351-10.952-3.531-16.886-3.531
		c-6.347,0-12.487,1.181-18.421,3.531c-5.939,2.354-11.259,5.578-15.965,9.671c-4.711,4.097-8.496,8.855-11.359,14.275
		c-2.869,5.426-4.299,11.105-4.299,17.04V433.632z"/>
	<path style="display:inline;" d="M781.386,368.853c-6.141,0-12.079,1.026-17.807,3.069c-5.732,2.049-10.746,4.912-15.044,8.597
		s-7.729,8.035-10.285,13.048c-2.562,5.019-3.838,10.491-3.838,16.426v54.034c0,5.938,1.276,11.465,3.838,16.579
		c2.557,5.118,5.987,9.57,10.285,13.354c4.298,3.79,9.157,6.707,14.583,8.75c5.421,2.049,11,2.97,16.732,2.764
		c10.64-0.408,19.851-3.224,27.631-8.443c7.776-5.219,13.403-11.513,16.886-18.881c0.408-0.614,0.922-1.229,1.535-1.843
		c0.614-0.613,1.329-0.921,2.149-0.921c1.229,0,2.351,0.514,3.377,1.535c1.022,1.026,1.229,2.456,0.614,4.298
		c-1.842,4.505-4.505,8.702-7.982,12.588c-3.482,3.891-7.574,7.32-12.28,10.285c-4.711,2.97-9.824,5.325-15.351,7.062
		c-5.526,1.741-11.053,2.609-16.579,2.609c-7.368,0-14.329-1.276-20.877-3.838c-6.553-2.557-12.28-6.087-17.192-10.592
		c-4.913-4.5-8.75-9.771-11.514-15.812c-2.763-6.034-4.145-12.534-4.145-19.495v-54.034c0-6.956,1.482-13.403,4.452-19.342
		c2.964-5.935,6.955-11.153,11.974-15.658c5.013-4.499,10.898-8.03,17.653-10.592c6.754-2.557,13.815-3.838,21.184-3.838
		c10.64,0,20.724,2.764,30.241,8.29c9.517,5.525,16.425,13.201,20.723,23.025c0.614,1.435,0.614,2.716,0,3.838
		c-0.613,1.127-1.741,1.895-3.377,2.303c-1.026,0.206-1.895,0-2.609-0.614c-0.72-0.614-1.281-1.329-1.688-2.149
		c-4.505-9.618-10.852-16.425-19.035-20.416C797.451,370.848,789.368,368.853,781.386,368.853z"/>
	<path style="display:inline;" d="M854.76,509.465V311.748c0-2.863,1.328-4.298,3.991-4.298c2.863,0,4.298,1.435,4.298,4.298v74.604
		c4.912-7.982,11.561-14.324,19.956-19.034c8.39-4.706,17.5-7.062,27.324-7.062c7.368,0,14.377,1.382,21.03,4.145
		c6.648,2.763,12.535,6.601,17.653,11.513c5.113,4.912,9.21,10.746,12.28,17.5c3.07,6.755,4.605,14.123,4.605,22.105v94.253
		c0,2.662-1.435,3.991-4.298,3.991c-2.663,0-3.991-1.329-3.991-3.991v-94.253c0-6.755-1.334-13.049-3.991-18.882
		c-2.663-5.833-6.246-10.793-10.746-14.89c-4.504-4.093-9.57-7.316-15.197-9.671c-5.632-2.351-11.412-3.531-17.346-3.531
		c-6.141,0-12.026,1.128-17.653,3.377c-5.632,2.255-10.592,5.373-14.891,9.364c-4.298,3.991-7.78,8.75-10.438,14.276
		c-2.662,5.526-4.097,11.565-4.298,18.113v95.789c0,2.868-1.435,4.298-4.298,4.298C856.088,513.763,854.76,512.333,854.76,509.465z"
		/>
</g>
<g id="Layer_2" style="display:none;">
	<rect style="display:inline;fill:#606060;" width="1000" height="550"/>
	<path style="fill:#FFFFFF;" d="M34.101,39.92c0-3.271,1.736-4.912,5.219-4.912h132.323c2.864,0,4.298,1.434,4.298,4.298
		c0,2.663-1.434,3.991-4.298,3.991H42.39v90.569h76.753c2.864,0,4.298,1.434,4.298,4.298c0,2.663-1.435,3.991-4.298,3.991H42.39
		v87.192h126.797c2.657,0.413,3.991,1.842,3.991,4.298c0,2.663-1.435,3.991-4.298,3.991H39.627c-1.641,0-2.763-0.254-3.377-0.768
		c-0.614-0.508-1.127-1.175-1.535-1.996c-0.413-0.815-0.614-1.842-0.614-3.07V39.92z"/>
	<path style="fill:#FFFFFF;" d="M295.985,233.646v-20.263c-5.119,7.781-11.873,13.969-20.263,18.574
		c-8.395,4.605-17.298,6.908-26.71,6.908c-7.368,0-14.482-1.482-21.337-4.452c-6.86-2.965-12.847-6.956-17.96-11.974
		c-5.118-5.013-9.162-10.846-12.127-17.5c-2.969-6.649-4.351-13.763-4.145-21.337v-44.21c-0.207-7.57,1.17-14.737,4.13-21.491
		c2.959-6.754,6.989-12.636,12.093-17.653c5.104-5.013,11.072-8.951,17.912-11.82c6.836-2.864,13.931-4.298,21.28-4.298
		s14.338,1.381,20.973,4.145c6.629,2.763,12.549,6.601,17.754,11.513c5.205,4.912,9.287,10.746,12.247,17.5
		c2.96,6.754,4.442,14.123,4.442,22.105v46.359v47.894c0,2.663-1.482,3.991-4.442,3.991
		C297.265,237.637,295.985,236.309,295.985,233.646z M201.731,183.704c0,6.989,1.334,13.36,4.001,19.116
		c2.667,5.757,6.159,10.693,10.472,14.804c4.312,4.116,9.292,7.301,14.943,9.561c5.646,2.264,11.551,3.391,17.711,3.391
		c5.953,0,11.7-1.026,17.245-3.084c5.546-2.053,10.472-5.037,14.785-8.941c4.313-3.905,7.805-8.635,10.477-14.185
		c2.667-5.55,4.207-11.719,4.62-18.502v-46.57c0-7.195-1.338-13.72-4.006-19.582c-2.667-5.857-6.212-10.789-10.625-14.799
		c-4.413-4.01-9.445-7.095-15.091-9.253c-5.651-2.159-11.451-3.238-17.404-3.238c-6.366,0-12.372,1.132-18.018,3.391
		c-5.651,2.265-10.63,5.502-14.943,9.714c-4.312,4.217-7.752,9.201-10.318,14.958c-2.567,5.756-3.848,12.026-3.848,18.809V183.704z"
		/>
	<path style="fill:#FFFFFF;" d="M325.762,206.015c-0.82-1.636-0.667-2.964,0.46-3.991c1.123-1.021,2.197-1.535,3.224-1.535
		c1.022,0,1.737,0.153,2.149,0.46c0.408,0.307,1.022,1.18,1.842,2.609c4.298,7.781,10.285,14.276,17.96,19.496
		s17.039,7.728,28.092,7.521c5.113,0,10.386-0.614,15.811-1.842c5.421-1.228,10.386-3.118,14.89-5.68
		c4.5-2.557,8.136-5.987,10.899-10.285s4.145-9.719,4.145-16.271c0-11.667-4.25-20.618-12.741-26.864
		c-8.496-6.241-19.188-9.364-32.083-9.364c-7.575,0-14.43-0.508-20.57-1.535c-6.141-1.022-11.413-2.917-15.812-5.68
		c-4.403-2.763-7.781-6.548-10.131-11.36c-2.355-4.807-3.531-10.899-3.531-18.267c0-11.667,4.5-21.131,13.509-28.399
		c9.004-7.263,21.079-11,36.228-11.206c3.271,0.207,6.447,0.413,9.518,0.614c3.07,0.206,6.035,0.82,8.903,1.842
		c4.706,1.641,9.518,4.044,14.43,7.215c4.912,3.176,9.004,7.114,12.28,11.82c1.022,1.434,1.535,2.763,1.535,3.991
		c0,0.82-0.413,1.588-1.228,2.302c-0.82,0.72-1.741,1.075-2.763,1.075c-0.82,0-1.487-0.254-1.996-0.768
		c-0.513-0.508-0.974-0.969-1.381-1.381c-5.119-6.342-10.645-11-16.579-13.969c-5.939-2.965-13.509-4.452-22.719-4.452
		c-12.895,0-23.026,3.07-30.394,9.21c-7.369,6.14-11.053,13.508-11.053,22.105c0,10.438,3.579,17.807,10.746,22.105
		c7.162,4.298,17.5,6.447,31.008,6.447c7.57,0,14.631,0.974,21.184,2.917c6.548,1.948,12.175,4.812,16.886,8.596
		c4.706,3.79,8.39,8.443,11.052,13.969c2.658,5.526,3.991,11.873,3.991,19.035c0,7.167-1.381,13.355-4.145,18.574
		s-6.553,9.623-11.359,13.202c-4.812,3.583-10.544,6.246-17.193,7.982c-6.654,1.736-13.768,2.609-21.337,2.609
		c-1.641,0-4.711-0.259-9.21-0.768c-4.504-0.508-9.47-1.842-14.89-3.991c-5.426-2.149-10.851-5.42-16.272-9.824
		C333.692,219.883,329.24,213.796,325.762,206.015z"/>
	<path style="display:inline;fill:#6495FF;" d="M506.591,238.558c-7.167-0.413-13.869-2.096-20.11-5.065
		c-6.246-2.965-11.667-6.855-16.272-11.667c-4.605-4.807-8.289-10.487-11.052-17.04c-2.763-6.548-4.145-13.609-4.145-21.184V89.042
		c0-2.658,1.329-3.991,3.991-3.991c2.456,0,3.886,1.228,4.298,3.675v94.67c0,6.74,1.276,12.971,3.838,18.689
		c2.557,5.718,5.987,10.673,10.285,14.856c4.298,4.188,9.311,7.455,15.044,9.806c5.728,2.35,11.768,3.521,18.114,3.521
		c5.934,0,11.714-1.171,17.346-3.521c5.628-2.351,10.692-5.565,15.198-9.652c4.5-4.083,8.082-9.033,10.744-14.857
		c2.658-5.823,3.992-12.103,3.992-18.843V89.033c0-2.653,1.328-3.982,3.99-3.982c2.865,0,4.299,1.333,4.299,3.991v94.561
		c0,7.574-1.381,14.583-4.145,21.03s-6.5,12.127-11.207,17.039c-4.709,4.912-10.184,8.855-16.424,11.82
		c-6.246,2.969-12.742,4.653-19.496,5.065v49.123c0,2.657-1.435,3.991-4.298,3.991c-2.663,0-3.991-1.333-3.991-3.991V238.558z"/>
	<path style="display:inline;fill:#6495FF;" d="M506.608,319.423h-62.631c-2.869,0-4.298-1.329-4.298-3.991
		c0-2.864,1.429-4.298,4.298-4.298h66.622h66.93c2.657,0,3.991,1.434,3.991,4.298c0,2.662-1.334,3.991-3.991,3.991h-62.631v190.349
		c0,2.662-1.435,3.991-4.299,3.991c-2.662,0-3.991-1.329-3.991-3.991V319.423z"/>
	<path style="fill:#FFFFFF;" d="M700.95,483.369c-2.255,4.505-5.118,8.649-8.597,12.435c-3.482,3.789-7.368,7.113-11.666,9.978
		c-4.298,2.869-8.855,5.118-13.662,6.754c-4.812,1.637-9.671,2.457-14.583,2.457c-8.597,0-16.479-1.382-23.641-4.146
		c-7.167-2.763-13.307-6.495-18.421-11.206c-5.118-4.705-9.109-10.284-11.974-16.731c-2.868-6.447-4.298-13.355-4.298-20.724
		v-49.122c0-7.369,1.636-14.276,4.912-20.724c3.271-6.447,7.623-12.021,13.048-16.732c5.421-4.706,11.667-8.443,18.729-11.206
		s14.276-4.145,21.645-4.145s14.223,1.382,20.569,4.145c6.342,2.763,11.921,6.5,16.732,11.206
		c4.807,4.711,8.597,10.285,11.359,16.732c2.764,6.447,4.145,13.354,4.145,20.724v24.561c0,2.869-1.333,4.299-3.99,4.299h-98.859
		v20.263c0,5.938,1.229,11.618,3.685,17.039c2.456,5.426,5.934,10.185,10.438,14.276c4.5,4.097,9.824,7.32,15.965,9.671
		c6.141,2.355,12.789,3.53,19.956,3.53c8.596,0,16.578-2.71,23.947-8.136c7.368-5.421,13.402-12.636,18.113-21.645
		c0.614-1.021,1.688-1.482,3.224-1.382c1.535,0.105,2.711,0.566,3.531,1.382c0.815,1.026,1.122,2.102,0.921,3.224
		C701.972,481.273,701.565,482.347,700.95,483.369z M602.399,433.632h94.561v-20.569c0-5.935-1.228-11.614-3.684-17.04
		c-2.456-5.42-5.733-10.179-9.825-14.275c-4.097-4.093-8.803-7.316-14.122-9.671c-5.325-2.351-10.952-3.531-16.886-3.531
		c-6.347,0-12.487,1.181-18.421,3.531c-5.939,2.354-11.259,5.578-15.965,9.671c-4.711,4.097-8.496,8.855-11.359,14.275
		c-2.869,5.426-4.299,11.105-4.299,17.04V433.632z"/>
	<path style="fill:#FFFFFF;" d="M781.386,368.853c-6.141,0-12.079,1.026-17.807,3.069c-5.732,2.049-10.746,4.912-15.044,8.597
		s-7.729,8.035-10.285,13.048c-2.562,5.019-3.838,10.491-3.838,16.426v54.034c0,5.938,1.276,11.465,3.838,16.579
		c2.557,5.118,5.987,9.57,10.285,13.354c4.298,3.79,9.157,6.707,14.583,8.75c5.421,2.049,11,2.97,16.732,2.764
		c10.64-0.408,19.851-3.224,27.631-8.443c7.776-5.219,13.403-11.513,16.886-18.881c0.408-0.614,0.922-1.229,1.535-1.843
		c0.614-0.613,1.329-0.921,2.149-0.921c1.229,0,2.351,0.514,3.377,1.535c1.022,1.026,1.229,2.456,0.614,4.298
		c-1.842,4.505-4.505,8.702-7.982,12.588c-3.482,3.891-7.574,7.32-12.28,10.285c-4.711,2.97-9.824,5.325-15.351,7.062
		c-5.526,1.741-11.053,2.609-16.579,2.609c-7.368,0-14.329-1.276-20.877-3.838c-6.553-2.557-12.28-6.087-17.192-10.592
		c-4.913-4.5-8.75-9.771-11.514-15.812c-2.763-6.034-4.145-12.534-4.145-19.495v-54.034c0-6.956,1.482-13.403,4.452-19.342
		c2.964-5.935,6.955-11.153,11.974-15.658c5.013-4.499,10.898-8.03,17.653-10.592c6.754-2.557,13.815-3.838,21.184-3.838
		c10.64,0,20.724,2.764,30.241,8.29c9.517,5.525,16.425,13.201,20.723,23.025c0.614,1.435,0.614,2.716,0,3.838
		c-0.613,1.127-1.741,1.895-3.377,2.303c-1.026,0.206-1.895,0-2.609-0.614c-0.72-0.614-1.281-1.329-1.688-2.149
		c-4.505-9.618-10.852-16.425-19.035-20.416C797.451,370.848,789.368,368.853,781.386,368.853z"/>
	<path style="fill:#FFFFFF;" d="M854.76,509.465V311.748c0-2.863,1.328-4.298,3.991-4.298c2.863,0,4.298,1.435,4.298,4.298v74.604
		c4.912-7.982,11.561-14.324,19.956-19.034c8.39-4.706,17.5-7.062,27.324-7.062c7.368,0,14.377,1.382,21.03,4.145
		c6.648,2.763,12.535,6.601,17.653,11.513c5.113,4.912,9.21,10.746,12.28,17.5c3.07,6.755,4.605,14.123,4.605,22.105v94.253
		c0,2.662-1.435,3.991-4.298,3.991c-2.663,0-3.991-1.329-3.991-3.991v-94.253c0-6.755-1.334-13.049-3.991-18.882
		c-2.663-5.833-6.246-10.793-10.746-14.89c-4.504-4.093-9.57-7.316-15.197-9.671c-5.632-2.351-11.412-3.531-17.346-3.531
		c-6.141,0-12.026,1.128-17.653,3.377c-5.632,2.255-10.592,5.373-14.891,9.364c-4.298,3.991-7.78,8.75-10.438,14.276
		c-2.662,5.526-4.097,11.565-4.298,18.113v95.789c0,2.868-1.435,4.298-4.298,4.298C856.088,513.763,854.76,512.333,854.76,509.465z"
		/>
</g>
<g id="Layer_3">
	<path d="M32.814,46.612c0-3.279,1.125-6.047,3.384-8.307c2.254-2.254,5.023-3.384,8.307-3.384h123.372
		c3.278,0,6.047,1.13,8.307,3.384c2.254,2.26,3.384,5.028,3.384,8.307c0,3.077-1.13,5.797-3.384,8.153
		c-2.26,2.36-5.029,3.538-8.307,3.538H56.196v69.531h65.532c3.278,0,6.047,1.13,8.307,3.384c2.255,2.259,3.384,5.028,3.384,8.307
		c0,3.076-1.129,5.797-3.384,8.153c-2.259,2.36-5.028,3.538-8.307,3.538H56.196v63.378h111.681c3.278,0,6.047,1.13,8.307,3.384
		c2.254,2.259,3.384,5.028,3.384,8.307c0,3.077-1.13,5.797-3.384,8.153c-2.26,2.36-5.029,3.538-8.307,3.538H45.428h-0.923
		c-3.076,0-5.797-1.125-8.153-3.384c-2.36-2.254-3.538-5.023-3.538-8.307V46.612z"/>
	<path d="M192.183,139.526c0-7.586,1.432-14.768,4.307-21.537c2.87-6.769,6.87-12.662,11.999-17.69
		c5.125-5.023,11.023-8.97,17.69-11.845c6.663-2.87,13.893-4.307,21.69-4.307c7.585,0,14.768,1.437,21.536,4.307
		c6.769,2.875,12.662,6.821,17.69,11.845c5.023,5.028,9.023,10.922,11.999,17.69c2.971,6.769,4.461,13.951,4.461,21.537v86.76
		c0,3.283-1.183,6.052-3.538,8.307c-2.36,2.259-5.077,3.384-8.153,3.384c-2.875,0-5.384-0.87-7.538-2.615
		c-2.153-1.74-3.437-3.947-3.846-6.615c-9.437,6.976-20.306,10.46-32.612,10.46c-7.591,0-14.768-1.432-21.537-4.307
		c-6.769-2.87-12.667-6.816-17.69-11.845c-5.028-5.023-9.028-10.922-11.999-17.69c-2.976-6.769-4.461-13.946-4.461-21.537V139.526z
		 M215.565,183.829c0,4.308,0.87,8.413,2.615,12.307c1.74,3.898,4.048,7.336,6.922,10.307c2.87,2.976,6.307,5.283,10.307,6.922
		c4,1.644,8.153,2.461,12.46,2.461c4.307,0,8.408-0.77,12.306-2.308c3.894-1.539,7.278-3.692,10.153-6.461
		c2.87-2.769,5.177-6,6.922-9.691c1.74-3.692,2.716-7.691,2.923-11.999v-45.841c0-4.308-0.875-8.408-2.615-12.307
		c-1.745-3.894-4.052-7.331-6.922-10.307c-2.875-2.971-6.307-5.278-10.307-6.922c-4-1.639-8.153-2.461-12.46-2.461
		c-4.514,0-8.72,0.822-12.614,2.461c-3.898,1.644-7.336,3.952-10.307,6.922c-2.976,2.976-5.283,6.413-6.922,10.307
		c-1.644,3.898-2.461,7.999-2.461,12.307V183.829z"/>
	<path d="M326.628,127.219c0-6.355,1.332-12.201,4-17.537c2.663-5.331,6.307-9.893,10.922-13.691
		c4.615-3.793,10.153-6.716,16.614-8.769c6.461-2.048,13.484-3.076,21.075-3.076c6.153,0.207,12.1,1.129,17.844,2.769
		c4.923,1.438,9.946,3.745,15.076,6.922c5.124,3.183,9.432,7.644,12.922,13.383c1.432,2.875,2.152,5.336,2.152,7.384
		c0,3.077-1.076,5.745-3.23,8c-2.152,2.259-4.768,3.384-7.846,3.384c-3.691,0-6.874-1.64-9.537-4.923
		c-3.898-4.716-7.797-8.153-11.691-10.307c-3.899-2.153-9.129-3.23-15.691-3.23c-8.821,0-15.897,1.899-21.229,5.692
		c-5.336,3.798-7.999,8.46-7.999,13.999c0,7.384,2.562,12.513,7.691,15.383c5.125,2.875,12.307,4.308,21.536,4.308
		c7.586,0,14.768,0.976,21.536,2.923c6.769,1.952,12.663,4.875,17.691,8.768c5.023,3.898,9.023,8.72,11.998,14.46
		c2.971,5.745,4.461,12.412,4.461,19.998c0,7.797-1.49,14.566-4.461,20.306c-2.975,5.745-7.076,10.566-12.307,14.46
		c-5.229,3.898-11.282,6.769-18.151,8.615c-6.874,1.846-14.104,2.769-21.69,2.769c-1.644,0-4.668-0.259-9.076-0.769
		c-4.413-0.509-9.283-1.894-14.614-4.153c-5.336-2.254-10.72-5.692-16.152-10.307c-5.437-4.615-9.999-11.023-13.691-19.229
		c-0.615-1.432-0.923-2.87-0.923-4.307c0-3.077,1.077-5.792,3.23-8.153c2.154-2.355,4.971-3.538,8.461-3.538
		c2.461,0,4.615,0.668,6.46,2c1.846,1.336,3.279,3.13,4.308,5.384c2.663,6.153,7.177,10.975,13.537,14.46
		c6.355,3.49,12.816,5.23,19.382,5.23c4.307,0,8.461-0.356,12.46-1.077c4-0.716,7.432-1.947,10.307-3.692
		c2.87-1.74,5.177-4.101,6.922-7.076c1.74-2.971,2.615-6.615,2.615-10.922c0-8.816-3.13-14.816-9.384-17.998
		c-6.259-3.178-13.897-4.769-22.921-4.769c-7.59,0-14.614-0.716-21.075-2.153c-6.461-1.433-11.999-3.846-16.614-7.23
		c-4.615-3.384-8.259-7.792-10.922-13.229C327.959,142.247,326.628,135.425,326.628,127.219z"/>
	<path style="fill:#6495FF;" d="M454.919,97.068c0-3.278,1.125-6.047,3.385-8.307c2.255-2.254,5.023-3.384,8.307-3.384
		c3.077,0,5.793,1.13,8.153,3.384c2.355,2.259,3.538,5.028,3.538,8.307v86.76c0,4.308,0.817,8.413,2.461,12.307
		c1.64,3.898,3.947,7.336,6.923,10.307c2.971,2.976,6.407,5.283,10.307,6.922c3.894,1.644,8.1,2.461,12.613,2.461
		c4.308,0,8.461-0.817,12.461-2.461c3.999-1.639,7.432-3.947,10.307-6.922c2.87-2.971,5.177-6.408,6.922-10.307
		c1.74-3.894,2.615-7.999,2.615-12.307v-86.76c0-3.278,1.125-6.047,3.385-8.307c2.254-2.254,5.023-3.384,8.307-3.384
		c3.076,0,5.793,1.13,8.152,3.384c2.356,2.259,3.539,5.028,3.539,8.307v86.76c0,6.567-1.13,12.874-3.385,18.921
		c-2.26,6.052-5.336,11.436-9.229,16.152c-3.899,4.721-8.566,8.769-13.999,12.153c-5.437,3.384-11.229,5.692-17.383,6.922v42.457
		c0,3.279-1.13,6.048-3.384,8.306c-2.26,2.256-5.028,3.385-8.308,3.385c-3.076,0-5.797-1.129-8.152-3.385
		c-2.36-2.258-3.538-5.027-3.538-8.306v-42.457c-6.36-1.23-12.206-3.538-17.537-6.922c-5.336-3.384-9.95-7.432-13.845-12.153
		c-3.898-4.716-6.975-10.1-9.229-16.152c-2.26-6.047-3.385-12.354-3.385-18.921V97.068z"/>
	<path style="fill:#6495FF;" d="M449.95,334.857c-3.283,0-6.052-1.125-8.307-3.384c-2.259-2.255-3.384-5.024-3.384-8.308
		c0-3.076,1.125-5.792,3.384-8.152c2.255-2.355,5.023-3.538,8.307-3.538h123.372c3.278,0,6.048,1.129,8.307,3.384
		c2.255,2.26,3.385,5.028,3.385,8.307c0,3.077-1.13,5.798-3.385,8.153c-2.259,2.36-5.028,3.538-8.307,3.538h-50.148V502.84
		c0,3.283-1.13,6.053-3.385,8.308c-2.259,2.259-5.028,3.384-8.307,3.384c-3.076,0-5.797-1.125-8.152-3.384
		c-2.36-2.255-3.538-5.024-3.538-8.308V334.857H449.95z"/>
	<path d="M593.015,416.08c0-7.586,1.433-14.768,4.308-21.536c2.87-6.769,6.869-12.662,11.999-17.69
		c5.124-5.023,11.022-8.971,17.69-11.846c6.662-2.869,13.893-4.307,21.689-4.307c7.586,0,14.768,1.438,21.536,4.307
		c6.769,2.875,12.662,6.822,17.691,11.846c5.023,5.028,9.022,10.922,11.998,17.69c2.971,6.769,4.461,13.95,4.461,21.536v22.151
		c0,3.283-1.129,6.052-3.384,8.307c-2.26,2.26-5.028,3.385-8.307,3.385h-76.3v10.46c0,4.308,0.87,8.413,2.615,12.307
		c1.74,3.898,4.047,7.336,6.922,10.307c2.87,2.976,6.307,5.283,10.307,6.922c4,1.645,8.153,2.462,12.46,2.462
		c6.562,0,12.461-1.692,17.69-5.076c5.23-3.385,9.178-7.946,11.846-13.691l0.308-0.923c0.816-2.255,2.201-4.048,4.153-5.384
		c1.946-1.332,4.153-2,6.614-2c3.278,0,6.048,1.183,8.307,3.538c2.255,2.36,3.385,5.076,3.385,8.153
		c0,1.437-0.308,2.874-0.923,4.307l-0.615,1.23c-4.308,9.846-10.976,17.845-19.998,23.998c-9.028,6.153-19.282,9.229-30.767,9.229
		c-7.59,0-14.768-1.433-21.536-4.307c-6.769-2.87-12.667-6.817-17.69-11.846c-5.028-5.023-9.027-10.922-11.999-17.69
		c-2.976-6.769-4.461-13.945-4.461-21.536V416.08z M616.397,426.54h64.608v-10.46c0-4.308-0.875-8.408-2.615-12.307
		c-1.745-3.894-4.053-7.331-6.922-10.307c-2.875-2.971-6.308-5.278-10.307-6.922c-4-1.64-8.153-2.462-12.461-2.462
		c-4.514,0-8.72,0.822-12.613,2.462c-3.899,1.644-7.336,3.951-10.307,6.922c-2.977,2.976-5.283,6.413-6.923,10.307
		c-1.644,3.898-2.461,7.999-2.461,12.307V426.54z"/>
	<path d="M725.307,416.08c0-7.793,1.485-15.075,4.461-21.844c2.972-6.769,7.076-12.614,12.307-17.537s11.278-8.816,18.152-11.691
		c6.869-2.869,14.2-4.307,21.998-4.307c1.432,0,4.254,0.26,8.46,0.769c4.202,0.515,8.869,1.899,13.999,4.153
		c5.124,2.26,10.2,5.692,15.229,10.307c5.024,4.615,9.178,11.028,12.461,19.229c0.615,1.644,0.923,3.076,0.923,4.307
		c0,3.284-1.13,6.053-3.385,8.308c-2.259,2.259-5.028,3.384-8.307,3.384c-2.461,0-4.668-0.663-6.614-2
		c-1.952-1.331-3.337-3.124-4.153-5.384c-2.875-6.153-6.976-10.97-12.307-14.46c-5.336-3.485-11.182-5.23-17.537-5.23
		c-4.514,0-8.72,0.822-12.613,2.462c-3.899,1.644-7.336,3.951-10.307,6.922c-2.977,2.976-5.283,6.413-6.923,10.307
		c-1.644,3.898-2.461,7.999-2.461,12.307v44.303c0,4.308,0.87,8.413,2.615,12.307c1.74,3.898,4.047,7.336,6.922,10.307
		c2.87,2.976,6.307,5.283,10.307,6.922c4,1.645,8.153,2.462,12.46,2.462c6.562,0,12.509-1.74,17.845-5.23
		c5.331-3.485,9.331-8.307,11.999-14.46c1.023-2.255,2.461-4.048,4.307-5.384c1.847-1.332,4-2,6.461-2
		c3.278,0,6.048,1.183,8.307,3.538c2.255,2.36,3.385,5.076,3.385,8.153c0,1.437-0.308,2.874-0.923,4.307
		c-4.105,9.028-9.028,15.897-14.768,20.613c-5.745,4.721-11.336,8.105-16.768,10.153c-5.438,2.053-10.052,3.177-13.845,3.384
		c-3.798,0.202-5.798,0.308-6,0.308c-7.59,0-14.768-1.433-21.536-4.307c-6.769-2.87-12.667-6.817-17.69-11.846
		c-5.028-5.023-9.027-10.922-11.999-17.69c-2.976-6.769-4.461-13.945-4.461-21.536V416.08z"/>
	<path d="M854.214,319.475c0-3.278,1.125-6.048,3.385-8.307c2.255-2.255,5.023-3.385,8.307-3.385c3.077,0,5.793,1.13,8.153,3.385
		c2.355,2.259,3.538,5.028,3.538,8.307v51.687c4.509-3.278,9.537-5.846,15.075-7.691s11.277-2.769,17.229-2.769
		c7.585,0,14.768,1.438,21.536,4.307c6.769,2.875,12.662,6.822,17.69,11.846c5.023,5.028,9.022,10.922,11.998,17.69
		c2.972,6.769,4.462,13.95,4.462,21.536v86.76c0,3.283-1.183,6.053-3.538,8.308c-2.36,2.259-5.077,3.384-8.153,3.384
		c-3.283,0-6.053-1.125-8.307-3.384c-2.26-2.255-3.385-5.024-3.385-8.308v-86.76c0-4.308-0.875-8.408-2.615-12.307
		c-1.745-3.894-4.052-7.331-6.922-10.307c-2.875-2.971-6.308-5.278-10.307-6.922c-4-1.64-8.153-2.462-12.46-2.462
		c-4.515,0-8.668,0.822-12.461,2.462c-3.798,1.644-7.182,3.846-10.152,6.614c-2.976,2.769-5.283,5.999-6.923,9.691
		c-1.644,3.691-2.566,7.691-2.769,11.999v87.99c0,3.283-1.183,6.053-3.538,8.308c-2.36,2.259-5.076,3.384-8.153,3.384
		c-3.283,0-6.052-1.125-8.307-3.384c-2.26-2.255-3.385-5.024-3.385-8.308v-88.914V319.475z"/>
</g>
</svg>
